<svg width="32" height="32" viewBox="0 0 32 32" fill="none" xmlns="http://www.w3.org/2000/svg">
  <rect x="0.5" y="0.5" width="31" height="31" rx="3.5" stroke="#4CAFEA"/>
  <path d="M12.22 16.72C12.0793 16.5795 12.0002 16.3888 12 16.19V15.81C12.0023 15.6116 12.0811 15.4217 12.22 15.28L17.36 10.15C17.4539 10.0553 17.5817 10.0021 17.715 10.0021C17.8483 10.0021 17.9761 10.0553 18.07 10.15L18.78 10.86C18.8741 10.9521 18.9271 11.0783 18.9271 11.21C18.9271 11.3417 18.8741 11.4678 18.78 11.56L14.33 16L18.78 20.44C18.8747 20.5339 18.9279 20.6617 18.9279 20.795C18.9279 20.9283 18.8747 21.0561 18.78 21.15L18.07 21.85C17.9761 21.9446 17.8483 21.9979 17.715 21.9979C17.5817 21.9979 17.4539 21.9446 17.36 21.85L12.22 16.72Z" fill="#4CAFEA"/>
</svg>
