<svg width="24" height="24" viewBox="0 0 24 24" fill="none" xmlns="http://www.w3.org/2000/svg">
<g clip-path="url(#clip0_201_160)">
<path d="M21.42 10.1999H19.572C18.996 7.7639 17.256 5.7839 14.988 4.8239V5.3999C15 6.3959 14.196 7.1999 13.2 7.1999H10.8V8.3999C10.8 9.0599 10.26 9.5999 9.60002 9.5999H8.40002V11.9999H9.60002V14.3999H8.40002L4.36802 10.3679C4.26002 10.8959 4.20002 11.4359 4.20002 11.9999C4.20002 16.2959 7.70402 19.7999 12 19.7999V21.5999C6.69602 21.5999 2.40002 17.3039 2.40002 11.9999C2.40002 6.6959 6.69602 2.3999 12 2.3999C16.692 2.3999 20.58 5.7599 21.42 10.1999ZM21.6 19.7279L20.328 20.9999L17.256 17.9279C16.608 18.3479 15.828 18.5999 15 18.5999C12.684 18.5999 10.8 16.7159 10.8 14.3999C10.8 12.0839 12.684 10.1999 15 10.1999C17.316 10.1999 19.2 12.0839 19.2 14.3999C19.2 15.2279 18.948 16.0079 18.528 16.6559L21.6 19.7279ZM17.4 14.3999C17.4 13.0799 16.32 11.9999 15 11.9999C13.68 11.9999 12.6 13.0799 12.6 14.3999C12.6 15.7199 13.68 16.7999 15 16.7999C16.32 16.7999 17.4 15.7199 17.4 14.3999Z" fill="white"/>
</g>
<defs>
<clipPath id="clip0_201_160">
<rect width="24" height="24" fill="white"/>
</clipPath>
</defs>
</svg>
