<svg width="197" height="50" viewBox="0 0 197 50" fill="none" xmlns="http://www.w3.org/2000/svg">
    <g id="Color logo - no background 1">
        <g id="SvgjsG2941">
            <g id="Group_2">
                <path id="Vector" d="M22.7316 39.6362L23.0672 39.3032L6.19845 22.5608L22.7316 6.15152L39.2617 22.5608L22.3961 39.3L22.7316 39.6362L23.0672 39.9692L40.2683 22.897C40.3569 22.809 40.4076 22.6865 40.4076 22.564C40.4076 22.4383 40.3569 22.3189 40.2683 22.2309L23.0672 5.15245C22.8804 4.96709 22.5797 4.96709 22.3961 5.15245L5.19183 22.2278C5.00507 22.4132 5.00507 22.7116 5.19183 22.8939L22.3961 39.9692C22.4847 40.0572 22.6082 40.1074 22.7316 40.1074C22.8551 40.1074 22.9785 40.0572 23.0672 39.9692L22.7316 39.6362Z" fill="#3299EE"/>
                <path id="Vector_2" d="M22.7318 34.4618L23.0673 34.7948L35.0581 22.8971C35.1467 22.8091 35.1973 22.6866 35.1973 22.564C35.1973 22.4384 35.1467 22.319 35.0581 22.231L23.0673 10.327C22.9787 10.239 22.8552 10.1887 22.7318 10.1887C22.6051 10.1887 22.4849 10.239 22.3962 10.327L10.4086 22.2279C10.2219 22.4132 10.2219 22.7117 10.4086 22.8939L22.3962 34.7948C22.4849 34.8828 22.6083 34.9331 22.7318 34.9331C22.8584 34.9331 22.9787 34.8828 23.0673 34.7948L22.7318 34.4618L23.0673 34.1288L11.4152 22.5609L22.7318 11.3292L34.0514 22.5609L22.3962 34.1288L22.7318 34.4618ZM29.509 22.5609L29.1735 22.2279L22.7318 28.6213L16.6288 22.5609L22.7318 16.5036L29.1703 22.8971L29.509 22.5609L29.8445 22.2279L23.0705 15.5014C22.9818 15.4134 22.8584 15.3632 22.7349 15.3632C22.6083 15.3632 22.488 15.4134 22.3994 15.5014L15.6221 22.2279C15.4354 22.4132 15.4354 22.7117 15.6221 22.8939L22.3962 29.6172C22.583 29.8026 22.8837 29.8026 23.0673 29.6172L29.8445 22.8939C30.0313 22.7086 30.0313 22.4101 29.8445 22.2279L29.509 22.5609Z" fill="#3299EE"/>
                <path id="Vector_3" d="M21.1709 22.5609L21.5065 22.894L22.7347 21.675L23.6273 22.5609L22.7347 23.4469L21.5065 22.2279L21.1709 22.5609L20.8354 22.894L22.3991 24.446C22.4878 24.5339 22.6112 24.5842 22.7347 24.5842C22.8613 24.5842 22.9816 24.5339 23.0702 24.446L24.6339 22.894C24.7226 22.806 24.7732 22.6835 24.7732 22.5609C24.7732 22.4353 24.7226 22.3159 24.6339 22.2279L23.0702 20.6759C22.8834 20.4905 22.5827 20.4905 22.3991 20.6759L20.8354 22.2279C20.6486 22.4133 20.6486 22.7117 20.8354 22.894L21.1709 22.5609Z" fill="#3299EE"/>
                <path id="Vector_4" d="M22.7316 39.6332L23.0671 39.3001L8.32242 24.6691C8.13566 24.4837 7.83494 24.4837 7.65134 24.6691L5.19494 27.107C5.10631 27.195 5.05566 27.3175 5.05566 27.4401C5.05566 27.5657 5.10631 27.6851 5.19494 27.7731L22.3961 44.8484C22.4847 44.9364 22.6081 44.9867 22.7316 44.9867C22.8582 44.9867 22.9785 44.9364 23.0671 44.8484L40.2714 27.7731C40.36 27.6851 40.4107 27.5626 40.4107 27.4401C40.4107 27.3144 40.36 27.195 40.2714 27.107L37.815 24.6691C37.6282 24.4837 37.3275 24.4837 37.1439 24.6691L22.3992 39.3033L22.7316 39.6332L23.0671 39.9662L37.4763 25.665L39.2616 27.4369L22.7316 43.8462L6.20156 27.4401L7.98688 25.6681L22.3961 39.9693C22.5828 40.1547 22.8835 40.1547 23.0671 39.9693L22.7316 39.6332Z" fill="#3299EE"/>
            </g>
        </g>
        <g id="SvgjsG2942">
            <path id="Vector_5" d="M71.7942 27.4224V34.5507H67.8041V27.4224C67.8041 25.9175 67.0859 24.8878 65.4899 24.8878C63.9204 24.8878 63.149 25.9439 63.149 27.4224V34.5507H59.1589V27.4224C59.1589 25.9175 58.3875 24.8878 56.7914 24.8878C55.222 24.8878 54.5038 25.9439 54.5038 27.4224V34.5507H50.5137V27.4224C50.5137 23.5942 53.1471 21.218 56.8446 21.218C58.7333 21.218 60.1963 22.0893 61.1539 23.6998C62.1116 22.0893 63.5746 21.218 65.4633 21.218C69.2938 21.218 71.7942 23.7262 71.7942 27.4224ZM83.6049 21.35H87.595V27.9504C87.595 31.9898 84.7754 34.6827 80.8119 34.6827C76.742 34.6827 74.0287 31.8578 74.0287 27.9504V21.35H78.0188V27.9504C78.0188 29.7193 78.9232 31.0129 80.8119 31.0129C82.7537 31.0129 83.6049 29.7457 83.6049 27.9504V21.35ZM103.821 27.9504V34.5507H99.8314V27.9504C99.8314 26.1287 98.9801 24.8878 97.0383 24.8878C95.123 24.8878 94.2452 26.1551 94.2452 27.9504V34.5507H90.2551V27.9504C90.2551 23.8846 93.0748 21.218 97.0383 21.218C101.161 21.218 103.821 24.0166 103.821 27.9504ZM106.136 21.35H110.126V34.5507H106.136V21.35ZM108.131 20.1092C106.774 20.1092 105.817 19.1587 105.817 17.8123C105.817 16.4394 106.774 15.5417 108.131 15.5417C109.514 15.5417 110.418 16.4394 110.418 17.8123C110.418 19.2115 109.541 20.1092 108.131 20.1092ZM134.199 27.4224V34.5507H130.209V27.4224C130.209 25.9175 129.491 24.8878 127.895 24.8878C126.326 24.8878 125.554 25.9439 125.554 27.4224V34.5507H121.564V27.4224C121.564 25.9175 120.793 24.8878 119.197 24.8878C117.627 24.8878 116.909 25.9439 116.909 27.4224V34.5507H112.919V27.4224C112.919 23.5942 115.552 21.218 119.25 21.218C121.139 21.218 122.602 22.0893 123.559 23.6998C124.517 22.0893 125.98 21.218 127.868 21.218C131.699 21.218 134.199 23.7262 134.199 27.4224ZM145.984 27.9504C145.877 26.0231 144.999 24.8878 142.978 24.8878C142.419 24.8878 141.94 24.967 141.541 25.1254C140.318 25.6799 139.865 26.7095 139.865 27.9768C139.865 28.3992 139.919 28.7952 140.052 29.1385C140.451 30.5113 141.648 31.0129 142.978 31.0129C144.999 31.0129 145.984 29.9305 145.984 27.9504ZM151.038 34.5507H147.048C146.782 33.8907 146.542 33.2307 146.383 32.5442C145.478 34.0227 144.095 34.6827 142.392 34.6827C138.589 34.6827 135.875 31.5146 135.875 27.8976C135.875 23.7262 139.014 21.218 142.978 21.218C147.207 21.218 149.867 23.911 149.974 27.9504C150 28.2936 150 28.6896 150 29.1649C150 31.0129 150.293 32.861 151.038 34.5507ZM159.816 21.7989V25.4687H156.092V27.9504C156.092 29.9833 157.448 31.0129 159.417 31.0129C159.656 31.0129 159.869 30.9865 160.055 30.9601C160.242 30.9337 160.401 30.9073 160.587 30.8809V34.5507C160.348 34.5771 160.162 34.6299 160.029 34.6563C159.869 34.6827 159.603 34.6827 159.257 34.6827C155.241 34.6827 152.102 31.9634 152.102 27.9504V18.1819H156.092V21.7989H159.816ZM166.147 27.9504V34.5507H162.157V27.9768C162.157 23.5942 165.402 21.218 169.499 21.218C169.632 21.218 169.818 21.218 170.004 21.2444C170.19 21.2708 170.403 21.3236 170.589 21.35V25.1782C170.456 25.1518 170.297 25.1254 170.11 25.099C169.924 25.0726 169.765 25.0462 169.632 25.0462C168.967 25.0462 168.435 25.1254 167.982 25.2575C167.238 25.5215 166.573 26.0231 166.333 26.8151C166.2 27.1584 166.147 27.5544 166.147 27.9504ZM171.946 21.35H175.936V34.5507H171.946V21.35ZM173.941 20.1092C172.584 20.1092 171.627 19.1587 171.627 17.8123C171.627 16.4394 172.584 15.5417 173.941 15.5417C175.324 15.5417 176.229 16.4394 176.229 17.8123C176.229 19.2115 175.351 20.1092 173.941 20.1092ZM184.767 30.7489L181.974 34.5507H177.585L182.586 27.7656L177.851 21.35H182.24L184.767 24.7822L187.294 21.35H191.684L186.975 27.7656L191.95 34.5507H187.56L184.767 30.7489Z" fill="url(#paint0_linear_64_240)"/>
        </g>
    </g>
    <defs>
        <linearGradient id="paint0_linear_64_240" x1="50.5137" y1="15.5417" x2="191.95" y2="15.5417" gradientUnits="userSpaceOnUse">
            <stop stop-color="#2D388A"/>
            <stop offset="1" stop-color="#00AEEF"/>
        </linearGradient>
    </defs>
</svg>
            