<svg width="32" height="32" viewBox="0 0 32 32" fill="none" xmlns="http://www.w3.org/2000/svg">
<rect x="0.5" y="0.5" width="31" height="31" rx="3.5" stroke="#4CAFEA"/>
<path d="M19.78 16.72C19.9207 16.5795 19.9998 16.3888 20 16.19V15.81C19.9977 15.6116 19.9189 15.4217 19.78 15.28L14.64 10.15C14.5461 10.0553 14.4183 10.0021 14.285 10.0021C14.1517 10.0021 14.0239 10.0553 13.93 10.15L13.22 10.86C13.1259 10.9521 13.0729 11.0783 13.0729 11.21C13.0729 11.3417 13.1259 11.4678 13.22 11.56L17.67 16L13.22 20.44C13.1253 20.5339 13.0721 20.6617 13.0721 20.795C13.0721 20.9283 13.1253 21.0561 13.22 21.15L13.93 21.85C14.0239 21.9446 14.1517 21.9979 14.285 21.9979C14.4183 21.9979 14.5461 21.9446 14.64 21.85L19.78 16.72Z" fill="#4CAFEA"/>
</svg>
