<svg width="142" height="20" viewBox="0 0 142 20" fill="none" xmlns="http://www.w3.org/2000/svg">
<path d="M21.7934 12.4224V19.5507H17.8033V12.4224C17.8033 10.9175 17.0851 9.88783 15.489 9.88783C13.9196 9.88783 13.1481 10.9439 13.1481 12.4224V19.5507H9.15804V12.4224C9.15804 10.9175 8.38662 9.88783 6.79058 9.88783C5.22114 9.88783 4.50292 10.9439 4.50292 12.4224V19.5507H0.512817V12.4224C0.512817 8.59416 3.14629 6.21804 6.84378 6.21804C8.73243 6.21804 10.1955 7.08929 11.1531 8.69977C12.1107 7.08929 13.5738 6.21804 15.4624 6.21804C19.2929 6.21804 21.7934 8.72617 21.7934 12.4224ZM33.6041 6.35005H37.5942V12.9504C37.5942 16.9898 34.7745 19.6827 30.811 19.6827C26.7411 19.6827 24.0278 16.8578 24.0278 12.9504V6.35005H28.0179V12.9504C28.0179 14.7193 28.9224 16.0129 30.811 16.0129C32.7529 16.0129 33.6041 14.7457 33.6041 12.9504V6.35005ZM53.8206 12.9504V19.5507H49.8305V12.9504C49.8305 11.1287 48.9793 9.88783 47.0374 9.88783C45.1222 9.88783 44.2444 11.1551 44.2444 12.9504V19.5507H40.2543V12.9504C40.2543 8.88458 43.0739 6.21804 47.0374 6.21804C51.1605 6.21804 53.8206 9.01659 53.8206 12.9504ZM56.1349 6.35005H60.125V19.5507H56.1349V6.35005ZM58.1299 5.10919C56.7733 5.10919 55.8157 4.15874 55.8157 2.81227C55.8157 1.43939 56.7733 0.541748 58.1299 0.541748C59.5132 0.541748 60.4176 1.43939 60.4176 2.81227C60.4176 4.21154 59.5398 5.10919 58.1299 5.10919ZM84.1986 12.4224V19.5507H80.2085V12.4224C80.2085 10.9175 79.4903 9.88783 77.8942 9.88783C76.3248 9.88783 75.5534 10.9439 75.5534 12.4224V19.5507H71.5633V12.4224C71.5633 10.9175 70.7919 9.88783 69.1958 9.88783C67.6264 9.88783 66.9081 10.9439 66.9081 12.4224V19.5507H62.918V12.4224C62.918 8.59416 65.5515 6.21804 69.249 6.21804C71.1377 6.21804 72.6007 7.08929 73.5583 8.69977C74.5159 7.08929 75.979 6.21804 77.8676 6.21804C81.6981 6.21804 84.1986 8.72617 84.1986 12.4224ZM95.9827 12.9504C95.8763 11.0231 94.9985 9.88783 92.9768 9.88783C92.4182 9.88783 91.9394 9.96704 91.5404 10.1254C90.3168 10.6799 89.8646 11.7095 89.8646 12.9768C89.8646 13.3992 89.9178 13.7952 90.0508 14.1385C90.4498 15.5113 91.6468 16.0129 92.9768 16.0129C94.9985 16.0129 95.9827 14.9305 95.9827 12.9504ZM101.037 19.5507H97.0467C96.7807 18.8907 96.5413 18.2307 96.3817 17.5442C95.4773 19.0227 94.0941 19.6827 92.3916 19.6827C88.5877 19.6827 85.8744 16.5146 85.8744 12.8976C85.8744 8.72617 89.0133 6.21804 92.9768 6.21804C97.2063 6.21804 99.8664 8.91098 99.9728 12.9504C99.9994 13.2936 99.9994 13.6896 99.9994 14.1649C99.9994 16.0129 100.292 17.861 101.037 19.5507ZM109.815 6.79887V10.4687H106.091V12.9504C106.091 14.9833 107.448 16.0129 109.416 16.0129C109.655 16.0129 109.868 15.9865 110.054 15.9601C110.241 15.9337 110.4 15.9073 110.586 15.8809V19.5507C110.347 19.5771 110.161 19.6299 110.028 19.6563C109.868 19.6827 109.602 19.6827 109.256 19.6827C105.24 19.6827 102.101 16.9634 102.101 12.9504V3.18188H106.091V6.79887H109.815ZM116.146 12.9504V19.5507H112.156V12.9768C112.156 8.59417 115.401 6.21804 119.498 6.21804C119.631 6.21804 119.817 6.21804 120.003 6.24444C120.189 6.27084 120.402 6.32365 120.588 6.35005V10.1782C120.455 10.1518 120.296 10.1254 120.11 10.099C119.923 10.0726 119.764 10.0462 119.631 10.0462C118.966 10.0462 118.434 10.1254 117.981 10.2575C117.237 10.5215 116.572 11.0231 116.332 11.8151C116.199 12.1584 116.146 12.5544 116.146 12.9504ZM121.945 6.35005H125.935V19.5507H121.945V6.35005ZM123.94 5.10919C122.583 5.10919 121.626 4.15874 121.626 2.81227C121.626 1.43939 122.583 0.541748 123.94 0.541748C125.323 0.541748 126.228 1.43939 126.228 2.81227C126.228 4.21154 125.35 5.10919 123.94 5.10919ZM134.767 15.7489L131.973 19.5507H127.584L132.585 12.7656L127.85 6.35005H132.239L134.767 9.78223L137.294 6.35005H141.683L136.974 12.7656L141.949 19.5507H137.56L134.767 15.7489Z" fill="url(#paint0_linear_201_194)"/>
<defs>
<linearGradient id="paint0_linear_201_194" x1="0.512817" y1="0.541748" x2="141.949" y2="0.541748" gradientUnits="userSpaceOnUse">
<stop stop-color="#2D388A"/>
<stop offset="1" stop-color="#00AEEF"/>
</linearGradient>
</defs>
</svg>
