<svg width="36" height="40" viewBox="0 0 36 40" fill="none" xmlns="http://www.w3.org/2000/svg">
<path d="M17.7312 34.6362L18.0667 34.3032L1.19796 17.5608L17.7312 1.15152L34.2612 17.5608L17.3956 34.3L17.7312 34.6362L18.0667 34.9692L35.2678 17.897C35.3564 17.809 35.4071 17.6865 35.4071 17.564C35.4071 17.4383 35.3564 17.3189 35.2678 17.2309L18.0667 0.15245C17.8799 -0.0329129 17.5792 -0.0329129 17.3956 0.15245L0.191341 17.2278C0.004579 17.4132 0.004579 17.7116 0.191341 17.8939L17.3956 34.9692C17.4842 35.0572 17.6077 35.1074 17.7312 35.1074C17.8546 35.1074 17.9781 35.0572 18.0667 34.9692L17.7312 34.6362Z" fill="#3299EE"/>
<path d="M17.7312 29.4618L18.0667 29.7948L30.0575 17.8971C30.1461 17.8091 30.1967 17.6866 30.1967 17.564C30.1967 17.4384 30.1461 17.319 30.0575 17.231L18.0667 5.32696C17.9781 5.23899 17.8546 5.18872 17.7312 5.18872C17.6045 5.18872 17.4842 5.23899 17.3956 5.32696L5.40802 17.2279C5.22125 17.4132 5.22125 17.7117 5.40802 17.8939L17.3956 29.7948C17.4842 29.8828 17.6077 29.9331 17.7312 29.9331C17.8578 29.9331 17.9781 29.8828 18.0667 29.7948L17.7312 29.4618L18.0667 29.1288L6.41463 17.5609L17.7312 6.32917L29.0508 17.5609L17.3956 29.1288L17.7312 29.4618ZM24.5084 17.5609L24.1729 17.2279L17.7312 23.6213L11.6281 17.5609L17.7312 11.5036L24.1697 17.8971L24.5084 17.5609L24.8439 17.2279L18.0699 10.5014C17.9812 10.4134 17.8578 10.3632 17.7343 10.3632C17.6077 10.3632 17.4874 10.4134 17.3988 10.5014L10.6215 17.2279C10.4348 17.4132 10.4348 17.7117 10.6215 17.8939L17.3956 24.6172C17.5824 24.8026 17.8831 24.8026 18.0667 24.6172L24.8439 17.8939C25.0307 17.7086 25.0307 17.4101 24.8439 17.2279L24.5084 17.5609Z" fill="#3299EE"/>
<path d="M16.1706 17.5609L16.5061 17.894L17.7343 16.675L18.627 17.5609L17.7343 18.4469L16.5061 17.2279L16.1706 17.5609L15.835 17.894L17.3988 19.446C17.4874 19.5339 17.6108 19.5842 17.7343 19.5842C17.8609 19.5842 17.9812 19.5339 18.0698 19.446L19.6336 17.894C19.7222 17.806 19.7728 17.6835 19.7728 17.5609C19.7728 17.4353 19.7222 17.3159 19.6336 17.2279L18.0698 15.6759C17.8831 15.4905 17.5824 15.4905 17.3988 15.6759L15.835 17.2279C15.6483 17.4133 15.6483 17.7117 15.835 17.894L16.1706 17.5609Z" fill="#3299EE"/>
<path d="M17.7311 34.6332L18.0666 34.3001L3.32193 19.6691C3.13517 19.4837 2.83445 19.4837 2.65085 19.6691L0.194456 22.107C0.105823 22.195 0.0551758 22.3175 0.0551758 22.4401C0.0551758 22.5657 0.105823 22.6851 0.194456 22.7731L17.3956 39.8484C17.4842 39.9364 17.6076 39.9867 17.7311 39.9867C17.8577 39.9867 17.978 39.9364 18.0666 39.8484L35.2709 22.7731C35.3595 22.6851 35.4102 22.5626 35.4102 22.4401C35.4102 22.3144 35.3595 22.195 35.2709 22.107L32.8145 19.6691C32.6278 19.4837 32.327 19.4837 32.1434 19.6691L17.3987 34.3033L17.7311 34.6332L18.0666 34.9662L32.4758 20.665L34.2611 22.4369L17.7311 38.8462L1.20107 22.4401L2.98639 20.6681L17.3956 34.9693C17.5823 35.1547 17.883 35.1547 18.0666 34.9693L17.7311 34.6332Z" fill="#3299EE"/>
</svg>
